<?xml version="1.0" standalone="no"?>
<!DOCTYPE svg PUBLIC "-//W3C//DTD SVG 20010904//EN"
 "http://www.w3.org/TR/2001/REC-SVG-20010904/DTD/svg10.dtd">
<svg version="1.0" xmlns="http://www.w3.org/2000/svg"
 width="1024.000000pt" height="1024.000000pt" viewBox="0 0 1024.000000 1024.000000"
 preserveAspectRatio="xMidYMid meet">
<metadata>
Created by potrace 1.11, written by Peter Selinger 2001-2013
</metadata>
<g transform="translate(0.000000,1024.000000) scale(0.100000,-0.100000)"
fill="#000000" stroke="none">
<path d="M0 9230 l0 -1010 3343 -2 3342 -3 80 -28 c97 -35 175 -81 241 -143
27 -25 303 -265 613 -533 1154 -994 1151 -991 1168 -991 5 0 179 52 387 115
208 64 381 114 383 111 3 -2 -5 -7 -16 -11 -19 -6 -21 -15 -22 -83 -1 -42 0
-83 1 -91 1 -8 -3 -17 -8 -20 -14 -9 -23 -431 -9 -431 6 0 8 -2 5 -5 -3 -3
-86 19 -184 49 -98 30 -180 53 -182 51 -2 -1 49 -47 112 -101 63 -55 115 -103
115 -108 1 -4 13 -22 27 -39 51 -61 130 -255 111 -274 -10 -9 -3589 -5 -3598
5 -4 4 -68 112 -143 241 -74 128 -144 243 -154 255 -22 24 -42 60 -42 75 0 6
10 11 23 11 13 0 28 5 35 12 17 17 17 239 0 256 -8 8 -53 12 -136 12 l-124 0
-80 40 c-44 22 -90 40 -103 40 -12 0 -42 7 -65 15 -46 16 -91 20 -55 5 18 -8
18 -9 2 -9 -10 -1 -20 6 -23 14 -5 13 -295 15 -2525 15 l-2519 0 0 -295 0
-295 1029 -2 1029 -3 43 -30 c23 -16 52 -48 63 -70 20 -38 21 -57 24 -460 2
-296 0 -432 -8 -460 -25 -87 -100 -144 -187 -145 l-43 0 0 58 c1 53 3 58 32
77 17 11 40 36 50 55 17 33 18 60 16 405 l-3 370 -24 34 c-13 18 -42 42 -65
52 -39 18 -86 19 -998 19 l-958 0 0 -485 0 -485 506 0 506 0 -6 -25 c-3 -13
-11 -36 -16 -50 l-10 -25 -490 0 -490 0 0 -2455 0 -2455 5120 0 5120 0 0 5120
0 5120 -5120 0 -5120 0 0 -1010z m4130 -2577 c-2417 -7 -4120 -7 -4120 0 0 4
1131 6 2513 5 1381 -2 2105 -4 1607 -5z m1139 -1102 c176 -275 321 -502 321
-505 0 -11 -2813 -6 -2852 4 -44 13 -93 52 -113 91 -22 41 -22 766 -1 807 19
37 65 77 101 90 20 7 391 11 1126 11 l1096 1 322 -499z m4227 -153 c-9 -46
-69 -166 -106 -210 l-31 -38 -1572 0 -1572 1 -75 130 c-41 72 -76 135 -78 140
-2 5 665 9 1718 9 l1723 0 -7 -32z m-8657 -512 c8 -10 10 -274 9 -982 l-3
-969 -21 -3 c-18 -3 -22 4 -27 35 -4 21 -7 459 -7 974 0 929 1 959 31 959 4 0
12 -6 18 -14z m1334 2 c16 -12 17 -80 15 -977 -3 -874 -4 -965 -19 -974 -9 -6
-24 -7 -33 -4 -15 6 -16 88 -16 981 0 976 0 981 31 985 3 1 13 -5 22 -11z
m-363 -387 c5 -11 10 -69 10 -130 0 -62 4 -111 9 -111 19 0 23 -41 7 -65 -10
-16 -16 -46 -16 -85 0 -69 -12 -100 -38 -100 -33 0 -42 22 -42 97 l0 73 -63 0
c-65 0 -87 11 -87 41 0 34 28 49 91 49 l59 0 0 113 c0 75 4 117 12 125 18 18
46 14 58 -7z m5803 -641 c-18 -7 -23 -17 -23 -47 -1 -92 -13 -239 -21 -248
-12 -13 -11 -28 1 -20 11 7 10 -16 -1 -25 -5 -4 -17 -274 -19 -412 0 -10 -8
-18 -17 -18 -11 0 -5 -7 15 -17 18 -8 31 -17 29 -19 -2 -2 -253 61 -558 141
-305 80 -575 151 -602 157 l-48 12 3 140 3 141 315 58 c511 93 914 165 930
166 8 0 5 -4 -7 -9z"/>
<path d="M2793 5940 c-62 -37 -63 -46 -63 -397 0 -298 1 -320 20 -350 38 -63
41 -63 445 -63 l365 0 0 415 0 415 -367 0 c-347 0 -370 -1 -400 -20z"/>
<path d="M3690 5545 l0 -415 420 0 420 0 0 415 0 415 -420 0 -420 0 0 -415z"/>
<path d="M4660 5545 l0 -415 355 0 356 0 -13 24 c-7 13 -121 199 -253 414
l-240 392 -102 0 -103 0 0 -415z"/>
<path d="M6660 7486 l0 -396 458 0 c251 0 467 3 479 6 19 5 -26 49 -304 291
-521 455 -528 461 -575 474 -24 6 -46 13 -50 16 -5 2 -8 -174 -8 -391z"/>
</g>
</svg>
